<svg width="512" height="390" xmlns="http://www.w3.org/2000/svg" xmlns:svg="http://www.w3.org/2000/svg" class="defs-only">
	<symbol id="youtube" >
		<g>
			<path id="svg_1" fill="#FFFFFF" d="m506.703,84.655c0,0 -5.297,-37.959 -20.303,-54.731c-19.421,-22.069 -41.49,-22.069 -51.2,-22.952c-71.503,-5.296 -179.2,-6.179 -179.2,-6.179l0,0c0,0 -107.697,0.883 -179.2,6.179c-9.71,0.883 -31.779,1.766 -51.2,22.952c-15.89,16.773 -20.303,54.731 -20.303,54.731s-5.297,45.021 -5.297,90.042l0,41.49c0,45.021 5.297,89.159 5.297,89.159s5.297,37.959 20.303,54.731c19.421,22.069 45.021,21.186 56.497,23.835c40.606,4.412 173.903,5.295 173.903,5.295s107.697,0 179.2,-6.179c9.71,-0.883 31.779,-1.766 51.2,-22.952c15.007,-16.772 20.303,-54.731 20.303,-54.731s5.297,-45.021 5.297,-89.159l0,-41.49c0,-45.02 -5.297,-90.041 -5.297,-90.041"/>
			<polygon id="svg_2" fill="#D8362A" points="194.20700073242188,105.84100341796875 194.20700073242188,297.3999938964844 361.9309997558594,203.8280029296875 "/>
		</g>
	</symbol>
</svg>